<svg width="1307" height="568" viewBox="0 0 1307 568" fill="none" xmlns="http://www.w3.org/2000/svg">
<path d="M653.089 76.7122C736.841 76.7122 812.724 141.238 867.684 245.698C922.638 350.148 956.636 494.46 956.636 653.877C956.636 813.294 922.638 957.607 867.684 1062.06C812.724 1166.52 736.841 1231.04 653.089 1231.04C569.338 1231.04 493.455 1166.52 438.495 1062.06C383.541 957.607 349.543 813.294 349.543 653.877C349.544 494.46 383.541 350.148 438.495 245.698C493.455 141.238 569.338 76.7122 653.089 76.7122Z" stroke="#1A2F51" stroke-width="0.502977"/>
<path d="M1230.15 653.128C1230.15 736.879 1165.62 812.762 1061.16 867.723C956.71 922.677 812.397 956.675 652.98 956.675C493.563 956.675 349.25 922.677 244.801 867.723C140.341 812.762 75.814 736.88 75.814 653.128C75.8141 569.376 140.341 493.493 244.801 438.533C349.25 383.579 493.563 349.582 652.98 349.582C812.397 349.582 956.71 383.579 1061.16 438.533C1165.62 493.493 1230.14 569.376 1230.15 653.128Z" stroke="#1A2F51" stroke-width="0.502977"/>
<path d="M244.32 246.11C303.542 186.888 402.826 178.858 515.553 213.86C628.268 248.858 754.353 326.862 867.078 439.587C979.803 552.312 1057.81 678.396 1092.81 791.112C1127.81 903.839 1119.78 1003.12 1060.56 1062.34C1001.33 1121.57 902.05 1129.6 789.322 1094.59C676.607 1059.6 550.523 981.591 437.798 868.866C325.074 756.142 247.069 630.057 212.07 517.342C177.068 404.615 185.099 305.331 244.32 246.11Z" stroke="#1A2F51" stroke-width="0.502977"/>
<path d="M1060.7 245.174C1119.92 304.395 1127.95 403.679 1092.95 516.406C1057.95 629.121 979.944 755.206 867.219 867.931C754.494 980.656 628.41 1058.66 515.695 1093.66C402.967 1128.66 303.683 1120.63 244.461 1061.41C185.24 1002.19 177.21 902.903 212.212 790.175C247.21 677.46 325.215 551.376 437.94 438.652C550.665 325.927 676.749 247.922 789.464 212.924C902.191 177.922 1001.48 185.952 1060.7 245.174Z" stroke="#1A2F51" stroke-width="0.502977"/>
<path d="M119.486 433.654C151.536 356.278 240.189 310.864 357.731 300.063C475.259 289.263 621.597 313.079 768.879 374.085C916.161 435.091 1036.48 521.727 1111.95 612.469C1187.42 703.221 1218 798.021 1185.95 875.398C1153.9 952.774 1065.24 998.187 947.703 1008.99C830.174 1019.79 683.837 995.972 536.555 934.966C389.273 873.959 268.955 787.324 193.487 696.582C118.01 605.83 87.4355 511.031 119.486 433.654Z" stroke="#1A2F51" stroke-width="0.502977"/>
<path d="M873.356 120.378C950.732 152.428 996.146 241.082 1006.95 358.623C1017.75 476.151 993.931 622.489 932.925 769.771C871.919 917.053 785.283 1037.37 694.541 1112.84C603.789 1188.32 508.989 1218.89 431.613 1186.84C354.236 1154.79 308.823 1066.14 298.022 948.595C287.222 831.067 311.038 684.729 372.045 537.447C433.051 390.165 519.686 269.848 610.428 194.379C701.18 118.903 795.98 88.3279 873.356 120.378Z" stroke="#1A2F51" stroke-width="0.502977"/>
<path d="M120.36 878.083C88.3093 800.707 118.884 705.907 194.361 615.155C269.829 524.413 390.146 437.777 537.428 376.771C684.71 315.765 831.048 291.949 948.577 302.749C1066.12 313.55 1154.77 358.963 1186.82 436.34C1218.87 513.716 1188.3 608.516 1112.82 699.268C1037.35 790.01 917.035 876.645 769.753 937.651C622.471 998.658 476.133 1022.47 358.604 1011.67C241.063 1000.87 152.41 955.459 120.36 878.083Z" stroke="#1A2F51" stroke-width="0.502977"/>
<path d="M431.693 121.185C509.07 89.135 603.869 119.71 694.621 195.186C785.363 270.655 871.999 390.972 933.005 538.254C994.012 685.536 1017.83 831.874 1007.03 949.402C996.226 1066.94 950.813 1155.6 873.437 1187.65C796.06 1219.7 701.26 1189.12 610.508 1113.65C519.766 1038.18 433.131 917.86 372.125 770.578C311.119 623.296 287.302 476.958 298.102 359.43C308.903 241.889 354.317 153.236 431.693 121.185Z" stroke="#1A2F51" stroke-width="0.502977"/>
<path d="M627.852 77.3257C711.524 73.6725 790.149 134.827 849.614 236.791C909.072 338.743 949.332 481.436 956.286 640.701C963.239 799.966 935.569 945.624 885.223 1052.37C834.871 1159.13 761.875 1226.9 678.203 1230.56C594.532 1234.21 515.906 1173.06 456.442 1071.09C396.984 969.139 356.724 826.447 349.771 667.182C342.817 507.917 370.487 362.258 420.833 255.512C471.184 148.753 544.18 80.9789 627.852 77.3257Z" stroke="#1A2F51" stroke-width="0.502977"/>
<path d="M1229.57 627.945C1233.22 711.617 1172.07 790.243 1070.1 849.707C968.151 909.165 825.459 949.425 666.193 956.379C506.928 963.333 361.27 935.662 254.523 885.316C147.765 834.965 79.9895 761.969 76.3363 678.297C72.6831 594.625 133.838 515.999 235.802 456.535C337.755 397.077 480.447 356.818 639.712 349.864C798.978 342.91 944.636 370.58 1051.38 420.926C1158.14 471.277 1225.92 544.274 1229.57 627.945Z" stroke="#1A2F51" stroke-width="0.502977"/>
<path d="M226.982 265.539C283.564 203.791 382.403 191.438 496.55 221.489C610.684 251.538 740.051 323.968 857.586 431.668C975.12 539.369 1058.55 661.931 1098.43 773.012C1138.32 884.106 1134.63 983.646 1078.04 1045.39C1021.46 1107.14 922.622 1119.5 808.475 1089.44C694.341 1059.4 564.974 986.965 447.44 879.264C329.905 771.564 246.475 649.002 206.594 537.921C166.708 426.827 170.4 327.288 226.982 265.539Z" stroke="#1A2F51" stroke-width="0.502977"/>
<path d="M1044.54 227.827C1106.29 284.409 1118.64 383.248 1088.59 497.395C1058.54 611.529 986.11 740.897 878.409 858.431C770.709 975.966 648.147 1059.4 537.065 1099.28C425.972 1139.16 326.432 1135.47 264.683 1078.89C202.935 1022.31 190.582 923.468 220.634 809.321C250.682 695.186 323.113 565.82 430.814 448.285C538.514 330.751 661.076 247.32 772.157 207.439C883.25 167.553 982.79 171.246 1044.54 227.827Z" stroke="#1A2F51" stroke-width="0.502977"/>
<path d="M110.39 457.13C139.035 378.429 225.623 329.192 342.581 313.274C459.527 297.358 606.764 314.768 756.567 369.291C906.37 423.815 1030.35 505.121 1109.71 592.484C1189.07 679.858 1223.75 773.234 1195.11 851.935C1166.46 930.635 1079.87 979.873 962.915 995.791C845.969 1011.71 698.732 994.296 548.929 939.772C399.126 885.248 275.144 803.943 195.79 716.58C116.427 629.207 81.7456 535.831 110.39 457.13Z" stroke="#1A2F51" stroke-width="0.502977"/>
<path d="M851.295 111.285C929.996 139.929 979.233 226.517 995.152 343.475C1011.07 460.421 993.658 607.659 939.134 757.461C884.61 907.264 803.304 1031.25 715.941 1110.6C628.568 1189.96 535.192 1224.65 456.491 1196C377.79 1167.36 328.553 1080.77 312.635 963.809C296.719 846.864 314.13 699.626 368.653 549.823C423.177 400.021 504.482 276.039 591.845 196.684C679.219 117.321 772.595 82.6399 851.295 111.285Z" stroke="#1A2F51" stroke-width="0.502977"/>
<path d="M130.582 901.163C95.1876 825.258 121.598 729.215 193.044 635.257C264.483 541.31 380.906 449.508 525.387 382.135C669.868 314.763 815.028 284.586 932.916 290.25C1050.82 295.913 1141.37 337.417 1176.76 413.321C1212.16 489.226 1185.75 585.269 1114.3 679.227C1042.86 773.175 926.436 864.976 781.956 932.348C637.475 999.721 492.315 1029.9 374.428 1024.23C256.527 1018.57 165.977 977.067 130.582 901.163Z" stroke="#1A2F51" stroke-width="0.502977"/>
<path d="M408.607 131.411C484.512 96.0162 580.555 122.427 674.513 193.873C768.46 265.311 860.262 381.735 927.635 526.216C995.007 670.697 1025.18 815.856 1019.52 933.744C1013.86 1051.64 972.353 1142.2 896.449 1177.59C820.544 1212.99 724.5 1186.57 630.543 1115.13C536.595 1043.69 444.794 927.265 377.422 782.784C310.049 638.303 279.872 493.144 285.535 375.256C291.199 257.356 332.703 166.806 408.607 131.411Z" stroke="#1A2F51" stroke-width="0.502977"/>
<path d="M602.664 79.0369C686.097 71.7375 767.315 129.404 831.171 228.677C895.019 327.939 941.465 468.74 955.359 627.55C969.253 786.36 947.962 933.087 902.321 1041.93C856.674 1150.78 786.704 1221.68 703.271 1228.98C619.838 1236.27 538.62 1178.61 474.764 1079.33C410.916 980.072 364.471 839.272 350.577 680.461C336.683 521.651 357.973 374.925 403.614 266.083C449.261 157.23 519.231 86.3364 602.664 79.0369Z" stroke="#1A2F51" stroke-width="0.502977"/>
<path d="M1230.9 603.562C1238.2 686.995 1180.54 768.213 1081.26 832.068C982.003 895.917 841.202 942.363 682.392 956.257C523.582 970.151 376.855 948.86 268.014 903.219C159.161 857.572 88.266 787.602 80.9665 704.169C73.6671 620.736 131.334 539.518 230.608 475.662C329.87 411.814 470.67 365.369 629.48 351.475C788.291 337.581 935.017 358.871 1043.86 404.512C1152.71 450.159 1223.61 520.129 1230.9 603.562Z" stroke="#1A2F51" stroke-width="0.502977"/>
<path d="M210.35 283.268C264.184 219.111 362.391 202.457 477.74 227.501C593.076 252.542 725.48 319.261 847.6 421.732C969.721 524.203 1058.42 643.01 1103.11 752.246C1147.8 861.494 1148.45 961.1 1094.62 1025.26C1040.78 1089.42 942.577 1106.07 827.228 1081.02C711.892 1055.98 579.489 989.263 457.368 886.792C335.248 784.321 246.551 665.515 201.862 556.279C157.168 447.032 156.516 347.425 210.35 283.268Z" stroke="#1A2F51" stroke-width="0.502977"/>
<path d="M1025.52 211.219C1089.67 265.053 1106.33 363.26 1081.28 478.609C1056.24 593.945 989.523 726.349 887.052 848.469C784.581 970.589 665.774 1059.29 556.539 1103.97C447.291 1148.67 347.684 1149.32 283.527 1095.49C219.369 1041.65 202.716 943.446 227.76 828.097C252.802 712.761 319.521 580.358 421.992 458.237C524.463 336.117 643.269 247.42 752.505 202.731C861.753 158.037 961.359 157.384 1025.52 211.219Z" stroke="#1A2F51" stroke-width="0.502977"/>
<path d="M102.331 480.982C127.515 401.107 211.873 348.139 328.026 327.135C444.166 306.133 592.023 317.104 744.061 365.041C896.1 412.979 1023.51 488.799 1106.6 572.618C1189.7 656.446 1228.42 748.221 1203.24 828.096C1178.05 907.971 1093.69 960.939 977.54 981.943C861.4 1002.95 713.544 991.973 561.505 944.036C409.466 896.098 282.056 820.279 198.966 736.46C115.867 652.632 77.1464 560.857 102.331 480.982Z" stroke="#1A2F51" stroke-width="0.502977"/>
<path d="M827.377 103.217C907.252 128.402 960.22 212.76 981.224 328.912C1002.23 445.052 991.255 592.909 943.318 744.948C895.38 896.986 819.56 1024.4 735.741 1107.49C651.912 1190.59 560.138 1229.31 480.263 1204.12C400.387 1178.94 347.42 1094.58 326.416 978.426C305.413 862.287 316.385 714.43 364.323 562.391C412.261 410.353 488.08 282.942 571.899 199.853C655.727 116.754 747.501 78.0328 827.377 103.217Z" stroke="#1A2F51" stroke-width="0.502977"/>
<path d="M141.801 923.781C103.129 849.492 125.325 752.389 192.605 655.404C259.878 558.43 372.186 461.637 513.591 388.026C654.995 314.416 798.701 277.936 916.723 278.452C1034.76 278.968 1127.03 316.482 1165.71 390.77C1204.38 465.059 1182.18 562.163 1114.9 659.148C1047.63 756.122 935.319 852.914 793.915 926.524C652.51 1000.13 508.805 1036.62 390.783 1036.1C272.747 1035.58 180.473 998.069 141.801 923.781Z" stroke="#1A2F51" stroke-width="0.502977"/>
<path d="M385.987 142.635C460.276 103.963 557.379 126.159 654.364 193.439C751.338 260.711 848.131 373.02 921.742 514.424C995.352 655.829 1031.83 799.534 1031.32 917.556C1030.8 1035.59 993.286 1127.87 918.998 1166.54C844.709 1205.21 747.605 1183.01 650.62 1115.73C553.646 1048.46 456.854 936.153 383.244 794.748C309.633 653.344 273.153 509.639 273.669 391.616C274.184 273.581 311.699 181.307 385.987 142.635Z" stroke="#1A2F51" stroke-width="0.502977"/>
<path d="M576.881 81.5435C659.916 70.6117 743.572 124.681 811.697 221.074C879.814 317.456 932.358 456.097 953.166 614.15C973.974 772.203 959.103 919.719 918.253 1030.45C877.398 1141.19 810.586 1215.07 727.551 1226C644.516 1236.93 560.86 1182.86 492.735 1086.47C424.618 990.085 372.075 851.445 351.267 693.392C330.459 535.338 345.328 387.823 386.179 277.094C427.034 166.354 493.846 92.4753 576.881 81.5435Z" stroke="#1A2F51" stroke-width="0.502977"/>
<path d="M1225.12 577.779C1236.06 660.814 1181.99 744.47 1085.59 812.595C989.212 880.712 850.572 933.256 692.518 954.064C534.465 974.872 386.95 960.001 276.221 919.151C165.48 878.295 91.6012 811.484 80.6694 728.449C69.7377 645.414 123.807 561.758 220.201 493.633C316.583 425.516 455.224 372.973 613.277 352.165C771.33 331.357 918.846 346.226 1029.57 387.077C1140.31 427.932 1214.19 494.744 1225.12 577.779Z" stroke="#1A2F51" stroke-width="0.502977"/>
<path d="M194.633 304.281C245.618 237.836 343.004 216.915 459.336 236.904C575.655 256.89 710.843 317.77 837.316 414.817C963.79 511.864 1057.58 626.688 1107 733.871C1156.41 841.065 1161.41 940.548 1110.43 1006.99C1059.44 1073.44 962.054 1094.36 845.722 1074.37C729.403 1054.38 594.216 993.503 467.742 896.456C341.268 799.409 247.473 684.585 198.062 577.403C148.645 470.208 143.648 370.725 194.633 304.281Z" stroke="#1A2F51" stroke-width="0.502977"/>
<path d="M1005.79 195.457C1072.24 246.442 1093.16 343.828 1073.17 460.16C1053.18 576.479 992.305 711.666 895.258 838.14C798.211 964.614 683.387 1058.41 576.204 1107.82C469.01 1157.24 369.526 1162.23 303.082 1111.25C236.637 1060.26 215.716 962.878 235.705 846.546C255.692 730.227 316.572 595.04 413.619 468.566C510.666 342.092 625.49 248.297 732.672 198.886C839.866 149.469 939.349 144.472 1005.79 195.457Z" stroke="#1A2F51" stroke-width="0.502977"/>
<path d="M95.3178 505.16C116.994 424.262 198.961 367.665 314.087 341.614C429.2 315.566 577.395 320.077 731.38 361.338C885.365 402.598 1015.96 472.788 1102.63 552.903C1189.3 633.027 1231.99 723.025 1210.32 803.923C1188.64 884.821 1106.67 941.417 991.546 967.468C876.432 993.516 728.238 989.004 574.253 947.744C420.268 906.484 289.672 836.294 203.005 756.179C116.329 676.056 73.6414 586.058 95.3178 505.16Z" stroke="#1A2F51" stroke-width="0.502977"/>
<path d="M803.126 96.2004C884.023 117.877 940.62 199.844 966.671 314.97C992.719 430.083 988.208 578.278 946.948 732.263C905.688 886.248 835.497 1016.84 755.382 1103.51C675.259 1190.19 585.261 1232.87 504.363 1211.2C423.465 1189.52 366.868 1107.55 340.817 992.428C314.769 877.315 319.281 729.12 360.542 575.135C401.802 421.151 471.991 290.554 552.106 203.887C632.23 117.211 722.228 74.524 803.126 96.2004Z" stroke="#1A2F51" stroke-width="0.502977"/>
<path d="M154.001 945.893C112.126 873.362 130.065 775.382 193.051 675.555C256.029 575.739 364.009 474.139 502.068 394.431C640.127 314.722 782.104 272.009 900.037 267.376C1017.98 262.743 1111.81 296.196 1153.68 368.727C1195.56 441.258 1177.62 539.238 1114.63 639.065C1051.65 738.881 943.673 840.48 805.614 920.189C667.555 999.897 525.578 1042.61 407.645 1047.24C289.7 1051.88 195.877 1018.42 154.001 945.893Z" stroke="#1A2F51" stroke-width="0.502977"/>
<path d="M363.879 154.835C436.41 112.959 534.39 130.899 634.217 193.884C734.033 256.862 835.633 364.842 915.341 502.901C995.05 640.96 1037.76 782.938 1042.4 900.87C1047.03 1018.82 1013.58 1112.64 941.045 1154.51C868.514 1196.39 770.534 1178.45 670.707 1115.46C570.891 1052.49 469.292 944.506 389.583 806.447C309.875 668.388 267.161 526.411 262.528 408.479C257.895 290.533 291.348 196.711 363.879 154.835Z" stroke="#1A2F51" stroke-width="0.502977"/>
<path d="M552.629 85.7481C635.108 71.2048 721.043 121.573 793.308 214.903C865.564 308.223 924.106 444.439 951.788 601.434C979.471 758.429 971.049 906.453 935.067 1018.86C899.081 1131.28 835.556 1208 753.077 1222.54C670.597 1237.09 584.662 1186.72 512.398 1093.39C440.141 1000.07 381.601 863.85 353.918 706.855C326.236 549.86 334.657 401.836 370.639 289.431C406.624 177.014 470.15 100.291 552.629 85.7481Z" stroke="#1A2F51" stroke-width="0.502977"/>
<path d="M1221.27 552.889C1235.81 635.368 1185.44 721.303 1092.11 793.568C998.793 865.825 862.577 924.366 705.582 952.048C548.587 979.731 400.563 971.309 288.158 935.327C175.74 899.341 99.0172 835.816 84.4739 753.337C69.9306 670.858 120.3 584.923 213.63 512.658C306.95 440.401 443.166 381.861 600.161 354.179C757.156 326.496 905.18 334.917 1017.58 370.899C1130 406.885 1206.72 470.41 1221.27 552.889Z" stroke="#1A2F51" stroke-width="0.502977"/>
<path d="M179.761 324.679C227.799 256.073 324.18 230.924 441.273 245.819C558.353 260.713 696.068 315.638 826.654 407.076C957.241 498.514 1055.95 609.137 1109.99 714.063C1164.04 819 1173.37 918.17 1125.33 986.776C1077.3 1055.38 980.914 1080.53 863.821 1065.63C746.741 1050.74 609.027 995.815 478.44 904.377C347.854 812.939 249.139 702.316 195.1 597.391C141.055 492.454 131.723 393.284 179.761 324.679Z" stroke="#1A2F51" stroke-width="0.502977"/>
<path d="M985.392 180.571C1054 228.609 1079.15 324.99 1064.25 442.083C1049.36 559.163 994.433 696.878 902.995 827.464C811.557 958.051 700.933 1056.76 596.008 1110.8C491.071 1164.85 391.901 1174.18 323.295 1126.14C254.69 1078.11 229.541 981.724 244.437 864.631C259.33 747.551 314.256 609.837 405.694 479.25C497.132 348.664 607.755 249.95 712.68 195.91C817.617 141.865 916.787 132.533 985.392 180.571Z" stroke="#1A2F51" stroke-width="0.502977"/>
<path d="M89.4261 531.686C107.553 449.92 186.974 389.802 300.854 358.754C414.721 327.709 562.972 325.752 718.61 360.256C874.248 394.76 1007.78 459.187 1097.86 535.446C1187.95 611.713 1234.52 699.763 1216.39 781.529C1198.27 863.296 1118.85 923.414 1004.97 954.462C891.099 985.506 742.849 987.463 587.211 952.958C431.573 918.454 298.039 854.028 207.96 777.77C117.871 701.503 71.299 613.453 89.4261 531.686Z" stroke="#1A2F51" stroke-width="0.502977"/>
<path d="M778.593 90.2501C860.36 108.377 920.478 187.798 951.526 301.678C982.57 415.545 984.528 563.795 950.024 719.434C915.519 875.072 851.092 1008.6 774.834 1098.68C698.567 1188.77 610.517 1235.35 528.75 1217.22C446.984 1199.09 386.866 1119.67 355.818 1005.79C324.773 891.923 322.817 743.673 357.321 588.035C391.826 432.397 456.252 298.863 532.51 208.784C608.777 118.695 696.827 72.123 778.593 90.2501Z" stroke="#1A2F51" stroke-width="0.502977"/>
<path d="M167.152 967.45C122.153 896.814 135.801 798.146 194.372 695.666C252.937 593.198 356.382 486.985 490.833 401.33C625.284 315.676 765.263 266.81 882.881 257.038C1000.51 247.264 1095.71 276.593 1140.71 347.228C1185.71 417.864 1172.06 516.533 1113.48 619.012C1054.92 721.481 951.474 827.693 817.024 913.347C682.573 999.002 542.594 1047.87 424.976 1057.64C307.345 1067.41 212.152 1038.09 167.152 967.45Z" stroke="#1A2F51" stroke-width="0.502977"/>
<path d="M342.106 167.166C412.742 122.166 511.41 135.815 613.89 194.386C716.358 252.95 822.571 356.395 908.226 490.846C993.88 625.297 1042.75 765.276 1052.52 882.894C1062.29 1000.53 1032.96 1095.72 962.328 1140.72C891.692 1185.72 793.023 1172.07 690.544 1113.5C588.076 1054.93 481.863 951.488 396.209 817.037C310.554 682.586 261.688 542.607 251.915 424.989C242.142 307.358 271.471 212.165 342.106 167.166Z" stroke="#1A2F51" stroke-width="0.502977"/>
<path d="M527.878 90.7333C609.644 72.6062 697.695 119.178 773.962 209.267C850.22 299.346 914.647 432.88 949.151 588.518C983.655 744.156 981.698 892.406 950.654 1006.27C919.606 1120.15 859.488 1199.58 777.721 1217.7C695.955 1235.83 607.904 1189.26 531.638 1099.17C455.379 1009.09 390.953 875.555 356.449 719.917C321.945 564.279 323.901 416.028 354.946 302.161C385.994 188.281 446.112 108.86 527.878 90.7333Z" stroke="#1A2F51" stroke-width="0.502977"/>
<path d="M1216.33 528.191C1234.46 609.957 1187.89 698.008 1097.8 774.275C1007.72 850.533 874.186 914.96 718.548 949.464C562.91 983.968 414.66 982.011 300.792 950.967C186.912 919.919 107.491 859.801 89.3638 778.034C71.2367 696.268 117.81 608.217 207.899 531.951C297.978 455.692 431.511 391.266 587.149 356.762C742.787 322.258 891.038 324.214 1004.91 355.259C1118.79 386.307 1198.21 446.425 1216.33 528.191Z" stroke="#1A2F51" stroke-width="0.502977"/>
<path d="M165.783 344.193C210.783 273.558 305.975 244.228 423.607 254.002C541.225 263.775 681.204 312.64 815.655 398.295C950.106 483.95 1053.55 590.162 1112.12 692.631C1170.69 795.11 1184.34 893.779 1139.34 964.415C1094.34 1035.05 999.144 1064.38 881.512 1054.61C763.894 1044.83 623.915 995.966 489.464 910.312C355.013 824.657 251.568 718.445 193.003 615.977C134.432 513.497 120.784 414.828 165.783 344.193Z" stroke="#1A2F51" stroke-width="0.502977"/>
<path d="M962.601 166.583C1033.24 211.582 1062.57 306.775 1052.79 424.406C1043.02 542.024 994.154 682.004 908.5 816.454C822.845 950.905 716.632 1054.35 614.164 1112.91C511.684 1171.49 413.015 1185.14 342.38 1140.14C271.744 1095.14 242.415 999.943 252.189 882.312C261.962 764.693 310.828 624.715 396.483 490.264C482.137 355.813 588.349 252.367 690.818 193.803C793.297 135.232 891.966 121.583 962.601 166.583Z" stroke="#1A2F51" stroke-width="0.502977"/>
<path d="M84.5729 556.456C99.1162 473.977 175.839 410.451 288.256 374.466C400.661 338.484 548.685 330.062 705.68 357.744C862.675 385.427 998.891 443.968 1092.21 516.225C1185.54 588.489 1235.91 674.424 1221.37 756.903C1206.82 839.383 1130.1 902.908 1017.68 938.894C905.278 974.875 757.254 983.296 600.259 955.614C443.264 927.932 307.048 869.391 213.728 797.135C120.398 724.87 70.0296 638.935 84.5729 556.456Z" stroke="#1A2F51" stroke-width="0.502977"/>
<path d="M752.69 85.2982C835.169 99.8415 898.695 176.564 934.68 288.981C970.662 401.386 979.084 549.41 951.402 706.405C923.719 863.4 865.178 999.617 792.921 1092.94C720.657 1186.27 634.722 1236.64 552.243 1222.09C469.763 1207.55 406.238 1130.83 370.252 1018.41C334.271 906.003 325.85 757.98 353.532 600.985C381.214 443.99 439.755 307.773 512.011 214.453C584.276 121.124 670.211 70.755 752.69 85.2982Z" stroke="#1A2F51" stroke-width="0.502977"/>
<path d="M180.34 985.318C132.302 916.713 141.634 817.543 195.679 712.606C249.719 607.681 348.432 497.057 479.019 405.619C609.606 314.181 747.32 259.256 864.4 244.363C981.493 229.467 1077.88 254.616 1125.91 323.221C1173.95 391.826 1164.62 490.997 1110.57 595.934C1056.53 700.859 957.82 811.482 827.233 902.92C696.646 994.358 558.932 1049.28 441.852 1064.18C324.759 1079.07 228.378 1053.92 180.34 985.318Z" stroke="#1A2F51" stroke-width="0.502977"/>
<path d="M321.363 182.07C389.968 134.032 489.139 143.363 594.075 197.409C699.001 251.448 809.625 350.162 901.062 480.748C992.5 611.335 1047.42 749.049 1062.32 866.129C1077.21 983.223 1052.07 1079.6 983.46 1127.64C914.855 1175.68 815.684 1166.35 710.747 1112.3C605.822 1058.26 495.199 959.549 403.761 828.962C312.323 698.376 257.398 560.662 242.504 443.582C227.609 326.489 252.758 230.108 321.363 182.07Z" stroke="#1A2F51" stroke-width="0.502977"/>
<path d="M503.371 96.7944C584.269 75.1179 674.267 117.805 754.391 204.481C834.506 291.148 904.696 421.744 945.956 575.729C987.217 729.714 991.728 877.909 965.68 993.022C939.629 1108.15 883.032 1190.12 802.134 1211.79C721.236 1233.47 631.238 1190.78 551.114 1104.1C470.999 1017.44 400.81 886.841 359.55 732.856C318.29 578.872 313.777 430.677 339.826 315.564C365.877 200.438 422.474 118.471 503.371 96.7944Z" stroke="#1A2F51" stroke-width="0.502977"/>
<path d="M1213.15 504.257C1234.83 585.155 1192.14 675.153 1105.47 755.277C1018.8 835.392 888.203 905.582 734.218 946.843C580.234 988.103 432.039 992.614 316.926 966.566C201.8 940.515 119.832 883.918 98.1552 803.02C76.4787 722.123 119.167 632.124 205.843 552.001C292.51 471.886 423.106 401.696 577.091 360.436C731.076 319.176 879.271 314.664 994.384 340.712C1109.51 366.763 1191.48 423.36 1213.15 504.257Z" stroke="#1A2F51" stroke-width="0.502977"/>
<path d="M152.747 367.309C194.622 294.778 288.445 261.324 406.39 265.957C524.323 270.59 666.3 313.303 804.36 393.012C942.419 472.72 1050.4 574.32 1113.38 674.136C1176.36 773.963 1194.3 871.943 1152.43 944.474C1110.55 1017.01 1016.73 1050.46 898.782 1045.82C780.849 1041.19 638.872 998.478 500.813 918.77C362.754 839.061 254.774 737.462 191.796 637.646C128.81 537.819 110.871 439.84 152.747 367.309Z" stroke="#1A2F51" stroke-width="0.502977"/>
<path d="M941.061 153.539C1013.59 195.415 1047.05 289.238 1042.41 407.183C1037.78 525.116 995.066 667.093 915.358 805.152C835.649 943.211 734.05 1051.19 634.234 1114.17C534.406 1177.15 436.427 1195.1 363.896 1153.22C291.365 1111.34 257.911 1017.52 262.545 899.575C267.178 781.642 309.892 639.665 389.6 501.606C469.309 363.547 570.907 255.567 670.723 192.588C770.55 129.603 868.53 111.664 941.061 153.539Z" stroke="#1A2F51" stroke-width="0.502977"/>
<path d="M80.6968 579.203C91.6286 496.168 165.507 429.357 276.248 388.501C386.976 347.651 534.492 332.78 692.545 353.588C850.598 374.396 989.238 426.94 1085.62 495.057C1182.01 563.182 1236.08 646.838 1225.15 729.874C1214.22 812.909 1140.34 879.72 1029.6 920.575C918.872 961.426 771.357 976.295 613.303 955.487C455.25 934.679 316.61 882.136 220.227 814.019C123.834 745.894 69.7651 662.238 80.6968 579.203Z" stroke="#1A2F51" stroke-width="0.502977"/>
<path d="M728.868 81.5852C811.903 92.517 878.714 166.396 919.569 277.136C960.42 387.864 975.29 535.38 954.482 693.433C933.674 851.486 881.131 990.127 813.013 1086.51C744.888 1182.9 661.232 1236.97 578.197 1226.04C495.162 1215.11 428.351 1141.23 387.496 1030.49C346.645 919.76 331.775 772.245 352.583 614.192C373.392 456.139 425.934 317.498 494.052 221.116C562.176 124.723 645.833 70.6535 728.868 81.5852Z" stroke="#1A2F51" stroke-width="0.502977"/>
<path d="M196.205 1008.74C145.221 942.291 150.218 842.808 199.634 735.614C249.045 628.431 342.84 513.607 469.313 416.56C595.787 319.513 730.975 258.634 847.294 238.647C963.626 218.658 1061.01 239.579 1112 306.024C1162.98 372.468 1157.98 471.951 1108.57 579.146C1059.16 686.329 965.362 801.152 838.888 898.199C712.414 995.246 577.227 1056.13 460.908 1076.11C344.576 1096.1 247.19 1075.18 196.205 1008.74Z" stroke="#1A2F51" stroke-width="0.502977"/>
<path d="M300.888 196.098C367.332 145.114 466.815 150.111 574.01 199.527C681.192 248.938 796.017 342.733 893.063 469.207C990.11 595.68 1050.99 730.868 1070.98 847.187C1090.97 963.519 1070.04 1060.91 1003.6 1111.89C937.155 1162.88 837.672 1157.88 730.478 1108.46C623.295 1059.05 508.471 965.255 411.424 838.781C314.378 712.307 253.497 577.12 233.511 460.801C213.522 344.47 234.443 247.083 300.888 196.098Z" stroke="#1A2F51" stroke-width="0.502977"/>
<path d="M479.151 103.916C559.027 78.7312 650.801 117.452 734.629 200.551C818.448 283.641 894.268 411.051 942.206 563.09C990.144 715.128 1001.11 862.985 980.113 979.125C959.108 1095.28 906.141 1179.64 826.265 1204.82C746.39 1230.01 654.616 1191.28 570.787 1108.18C486.968 1025.09 411.149 897.685 363.211 745.646C315.274 593.607 304.302 445.751 325.304 329.611C346.308 213.458 399.276 129.1 479.151 103.916Z" stroke="#1A2F51" stroke-width="0.502977"/>
<path d="M1206.03 480.036C1231.21 559.911 1192.49 651.685 1109.39 735.513C1026.3 819.332 898.895 895.153 746.856 943.09C594.818 991.028 446.961 1002 330.821 980.997C214.668 959.992 130.31 907.025 105.125 827.15C79.9404 747.274 118.662 655.5 201.761 571.672C284.851 487.852 412.261 412.033 564.3 364.096C716.338 316.158 864.195 305.186 980.335 326.188C1096.49 347.193 1180.85 400.16 1206.03 480.036Z" stroke="#1A2F51" stroke-width="0.502977"/>
<path d="M140.657 387.822C179.329 313.534 271.603 276.019 389.638 275.503C507.66 274.988 651.366 311.467 792.771 385.078C934.175 458.688 1046.48 555.481 1113.76 652.455C1181.04 749.44 1203.23 846.544 1164.56 920.833C1125.89 995.121 1033.61 1032.64 915.578 1033.15C797.556 1033.67 653.851 997.186 512.446 923.576C371.042 849.965 258.733 753.173 191.46 656.199C124.181 559.214 101.984 462.111 140.657 387.822Z" stroke="#1A2F51" stroke-width="0.502977"/>
<path d="M920.594 141.443C994.883 180.115 1032.4 272.39 1032.91 390.425C1033.43 508.447 996.949 652.153 923.339 793.557C849.728 934.962 752.935 1047.27 655.961 1114.54C558.976 1181.82 461.872 1204.02 387.584 1165.35C313.295 1126.68 275.781 1034.4 275.265 916.365C274.75 798.343 311.23 654.638 384.841 513.233C458.451 371.829 555.243 259.52 652.217 192.247C749.202 124.967 846.306 102.771 920.594 141.443Z" stroke="#1A2F51" stroke-width="0.502977"/>
<path d="M78.1198 606.501C85.4192 523.068 156.313 453.098 265.166 407.451C374.007 361.81 520.734 340.519 679.544 354.413C838.355 368.307 979.155 414.753 1078.42 478.601C1177.69 542.457 1235.36 623.675 1228.06 707.108C1220.76 790.541 1149.86 860.511 1041.01 906.158C932.17 951.799 785.443 973.089 626.633 959.195C467.823 945.301 327.022 898.856 227.76 835.007C128.487 771.152 70.8205 689.934 78.1198 606.501Z" stroke="#1A2F51" stroke-width="0.502977"/>
<path d="M703.767 78.8872C787.2 86.1866 857.17 157.081 902.817 265.934C948.458 374.775 969.749 521.501 955.855 680.312C941.961 839.122 895.515 979.922 831.667 1079.18C767.811 1178.46 686.593 1236.12 603.16 1228.83C519.727 1221.53 449.757 1150.63 404.11 1041.78C358.469 932.937 337.179 786.21 351.073 627.4C364.967 468.59 411.412 327.789 475.261 228.527C539.116 129.254 620.334 71.5878 703.767 78.8872Z" stroke="#1A2F51" stroke-width="0.502977"/>
<path d="M212.057 1028.39C158.222 964.23 158.875 864.624 203.569 755.376C248.258 646.141 336.954 527.334 459.075 424.863C581.195 322.392 713.598 255.673 828.935 230.632C944.284 205.588 1042.49 222.241 1096.33 286.398C1150.16 350.556 1149.51 450.162 1104.81 559.41C1060.12 668.646 971.427 787.452 849.306 889.923C727.186 992.394 594.783 1059.11 479.446 1084.15C364.097 1109.2 265.891 1092.55 212.057 1028.39Z" stroke="#1A2F51" stroke-width="0.502977"/>
<path d="M281.26 211.888C345.417 158.054 445.024 158.707 554.271 203.4C663.507 248.089 782.314 336.786 884.785 458.906C987.256 581.027 1053.97 713.43 1079.02 828.766C1104.06 944.116 1087.41 1042.32 1023.25 1096.16C959.092 1149.99 859.486 1149.34 750.238 1104.64C641.002 1059.96 522.196 971.258 419.725 849.138C317.254 727.017 250.535 594.614 225.493 479.278C200.449 363.929 217.103 265.723 281.26 211.888Z" stroke="#1A2F51" stroke-width="0.502977"/>
<path d="M454.841 111.553C533.541 82.9088 626.917 117.59 714.29 196.953C801.654 276.308 882.96 400.289 937.483 550.092C992.007 699.895 1009.42 847.133 993.501 964.078C977.583 1081.04 928.346 1167.63 849.645 1196.27C770.944 1224.91 677.568 1190.23 590.195 1110.87C502.831 1031.51 421.527 907.533 367.003 757.73C312.479 607.927 295.068 460.69 310.984 343.744C326.902 226.786 376.14 140.198 454.841 111.553Z" stroke="#1A2F51" stroke-width="0.502977"/>
<path d="M1197.86 456.142C1226.51 534.843 1191.83 628.218 1112.46 715.592C1033.11 802.955 909.126 884.261 759.323 938.785C609.521 993.308 462.283 1010.72 345.338 994.802C228.379 978.884 141.79 929.647 113.146 850.946C84.501 772.246 119.183 678.87 198.546 591.496C277.901 504.133 401.883 422.828 551.686 368.304C701.488 313.78 848.726 296.369 965.671 312.286C1082.63 328.204 1169.22 377.441 1197.86 456.142Z" stroke="#1A2F51" stroke-width="0.502977"/>
<path d="M129.547 412.136C164.942 336.231 255.492 294.728 373.392 289.064C491.28 283.401 636.44 313.577 780.921 380.949C925.402 448.322 1041.83 540.124 1113.26 634.071C1184.71 728.029 1211.12 824.073 1175.73 899.977C1140.33 975.882 1049.78 1017.39 931.88 1023.05C813.993 1028.71 668.833 998.535 524.352 931.162C379.872 863.79 263.447 771.989 192.009 678.041C120.563 584.084 94.1522 488.041 129.547 412.136Z" stroke="#1A2F51" stroke-width="0.502977"/>
<path d="M897.924 130.324C973.828 165.719 1015.33 256.269 1021 374.169C1026.66 492.057 996.483 637.217 929.11 781.698C861.738 926.179 769.936 1042.6 675.988 1114.04C582.03 1185.49 485.987 1211.9 410.082 1176.5C334.178 1141.11 292.674 1050.56 287.011 932.657C281.347 814.77 311.525 669.61 378.897 525.129C446.27 380.649 538.071 264.225 632.018 192.786C725.976 121.34 822.019 94.9293 897.924 130.324Z" stroke="#1A2F51" stroke-width="0.502977"/>
<path d="M76.5369 631.688C80.1901 548.016 147.964 475.02 254.723 424.668C361.47 374.323 507.128 346.652 666.393 353.605C825.658 360.559 968.351 400.82 1070.3 460.277C1172.27 519.742 1233.42 598.367 1229.77 682.039C1226.12 765.711 1158.34 838.707 1051.58 889.058C944.836 939.404 799.177 967.074 639.912 960.12C480.647 953.167 337.954 912.907 236.002 853.449C134.038 793.985 72.8837 715.36 76.5369 631.688Z" stroke="#1A2F51" stroke-width="0.502977"/>
<path d="M678.578 77.2866C762.25 80.9398 835.246 148.714 885.598 255.473C935.943 362.219 963.614 507.878 956.661 667.143C949.707 826.408 909.446 969.1 849.989 1071.05C790.524 1173.02 711.899 1234.17 628.227 1230.52C544.555 1226.87 471.559 1159.09 421.208 1052.33C370.862 945.585 343.192 799.927 350.146 640.662C357.099 481.397 397.359 338.704 456.817 236.752C516.281 134.788 594.906 73.6335 678.578 77.2866Z" stroke="#1A2F51" stroke-width="0.502977"/>
<path d="M228.742 1047.34C172.161 985.588 168.468 886.048 208.354 774.954C248.235 663.873 331.665 541.311 449.2 433.61C566.734 325.91 696.101 253.48 810.236 223.431C924.383 193.38 1023.22 205.733 1079.8 267.481C1136.39 329.229 1140.08 428.769 1100.19 539.863C1060.31 650.944 976.88 773.506 859.346 881.206C741.811 988.907 612.444 1061.34 498.31 1091.39C384.163 1121.44 285.324 1109.08 228.742 1047.34Z" stroke="#1A2F51" stroke-width="0.502977"/>
<path d="M262.338 228.517C324.086 171.935 423.626 168.243 534.719 208.129C645.8 248.01 768.362 331.44 876.063 448.975C983.763 566.509 1056.19 695.876 1086.24 810.011C1116.29 924.158 1103.94 1023 1042.19 1079.58C980.444 1136.16 880.904 1139.85 769.81 1099.97C658.729 1060.09 536.168 976.655 428.467 859.12C320.767 741.586 248.336 612.219 218.287 498.085C188.236 383.938 200.59 285.099 262.338 228.517Z" stroke="#1A2F51" stroke-width="0.502977"/>
</svg>
