<svg width="728" height="180" viewBox="0 0 728 180" fill="none" xmlns="http://www.w3.org/2000/svg">
<path d="M37 180C30.3333 180 24.1667 178.333 18.5 175C12.8333 171.667 8.33333 167.167 5 161.5C1.66667 155.833 4.32134e-07 149.667 4.32134e-07 143V37C4.32134e-07 30.1667 1.66667 24 5 18.5C8.33333 12.8333 12.8333 8.33333 18.5 4.99999C24.1667 1.66666 30.3333 -7.15256e-06 37 -7.15256e-06H142.75C149.583 -7.15256e-06 155.75 1.66666 161.25 4.99999C166.917 8.33333 171.417 12.8333 174.75 18.5C178.25 24 180 30.1667 180 37V54H140.75V39H38.75V141H140.75V114H101.75V75H180V143C180 149.667 178.25 155.833 174.75 161.5C171.417 167.167 166.917 171.667 161.25 175C155.75 178.333 149.583 180 142.75 180H37ZM258.98 180L193.48 -7.15256e-06H234.73L273.98 107.25L313.23 -7.15256e-06H348.98L388.48 107.25L427.73 -7.15256e-06H468.73L403.23 180H373.48L330.98 64.25L288.73 180H258.98ZM487.158 180V-7.15256e-06H525.408V180H487.158ZM547.375 180V-7.15256e-06H690.125C696.958 -7.15256e-06 703.125 1.66666 708.625 4.99999C714.292 8.33333 718.792 12.8333 722.125 18.5C725.625 24 727.375 30.1667 727.375 37V143C727.375 149.667 725.625 155.833 722.125 161.5C718.792 167.167 714.292 171.667 708.625 175C703.125 178.333 696.958 180 690.125 180H547.375ZM585.875 141H688.125V39H585.875V141Z" fill="url(#paint0_linear_197_252)"/>
<defs>
<linearGradient id="paint0_linear_197_252" x1="386" y1="-38" x2="386" y2="235" gradientUnits="userSpaceOnUse">
<stop stop-color="#424348"/>
<stop offset="1" stop-color="#0C0C0D" stop-opacity="0.5"/>
</linearGradient>
</defs>
</svg>
