<svg width="187" height="70" viewBox="0 0 187 70" fill="none" xmlns="http://www.w3.org/2000/svg">
<path d="M63.5783 39.4757C63.472 43.5337 62.754 47.4126 61.4245 51.1125C60.0949 54.7528 58.1804 58.0051 55.6809 60.8696C53.1814 63.6743 50.0968 65.9122 46.4273 67.5831C42.7578 69.1944 38.4767 70 33.584 70C28.9041 70 24.5166 69.2242 20.4216 67.6726C16.3799 66.1211 12.8167 63.8534 9.73219 60.8696C6.64767 57.8858 4.25451 54.2157 2.55271 49.8593C0.850902 45.503 0 40.5499 0 35C0 29.4501 0.850902 24.497 2.55271 20.1407C4.30769 15.7843 6.72744 12.1142 9.81196 9.13043C12.9497 6.14663 16.5926 3.87894 20.7407 2.32737C24.9421 0.775789 29.5157 0 34.4615 0C40.8965 0 46.4805 1.13384 51.2136 3.40153C56 5.66922 59.829 8.77238 62.7008 12.711C65.6258 16.6496 67.4871 21.185 68.2849 26.3171H53.0484C52.5166 23.8107 51.3998 21.6624 49.698 19.8721C47.9962 18.0818 45.8423 16.7093 43.2364 15.7545C40.6837 14.74 37.7588 14.2327 34.4615 14.2327C30.4729 14.2327 27.0427 15.0384 24.1709 16.6496C21.2991 18.2012 19.0655 20.5286 17.4701 23.6317C15.8746 26.6752 15.0769 30.4646 15.0769 35C15.0769 39.5354 15.9278 43.3845 17.6296 46.5473C19.3314 49.7101 21.7246 52.0972 24.8091 53.7084C27.8936 55.3197 31.5365 56.1253 35.7379 56.1253C39.8328 56.1253 43.4226 55.439 46.5071 54.0665C49.6448 52.6939 52.1177 50.7246 53.9259 48.1586C55.7872 45.5925 56.8509 42.5192 57.1168 38.9386L63.5783 39.4757ZM37.4929 46.2788V34.2839H68.8433V68.5678H58.074L56 41.7136L59.0313 46.2788H37.4929Z" fill="white"/>
<path d="M117.838 64.6391L115.135 64.6888L123.865 31.2702H132.684L122.27 68.5678H111.589L101.529 36.1438H105.03L95.0142 68.5678H84.2893L73.8746 31.2702H82.7382L91.4688 64.6391L88.8098 64.5894L98.8699 31.2702H107.733L117.838 64.6391Z" fill="white"/>
<path d="M136.391 31.2702H144.767V68.5678H136.391V31.2702Z" fill="white"/>
<path d="M167.456 31.2702C171.356 31.2702 174.768 32.0494 177.693 33.6076C180.618 35.1658 182.893 37.3373 184.518 40.1222C186.173 42.9071 187 46.1727 187 49.919C187 53.6322 186.173 56.8978 184.518 59.7158C182.893 62.5007 180.618 64.6723 177.693 66.2305C174.768 67.7887 171.356 68.5678 167.456 68.5678H151.236V31.2702H167.456ZM159.567 64.7386L155.49 60.2629H168.076C170.204 60.2629 172.05 59.8319 173.616 58.9699C175.182 58.1079 176.393 56.9144 177.25 55.3893C178.107 53.8311 178.535 52.0077 178.535 49.919C178.535 47.7972 178.107 45.9738 177.25 44.4487C176.393 42.9237 175.182 41.7301 173.616 40.8681C172.05 40.0062 170.204 39.5752 168.076 39.5752H155.49L159.567 35.0995V64.7386Z" fill="white"/>
</svg>
