<svg width="20" height="20" viewBox="0 0 20 20" fill="none" xmlns="http://www.w3.org/2000/svg">
<path d="M8.58353 2.5833C5.16686 3.16664 2.33353 5.91664 1.7502 9.3333C1.5002 10.9166 1.66686 12.5 2.2502 13.9166C2.2502 14 2.33353 14.0833 2.41686 14.1666L2.5002 14.25L2.66686 14.4166C2.7502 14.4166 2.83353 14.5 2.91686 14.5C3.0002 14.5 3.16686 14.5 3.2502 14.4166L6.2502 13.1666C6.33353 13.0833 6.41686 13.0833 6.5002 13C6.5002 13 6.5002 12.9166 6.58353 12.9166C6.58353 12.8333 6.66686 12.8333 6.66686 12.75V12.1666C6.7502 11.75 6.66686 11.4166 6.66686 11.0833C6.66686 9.0833 8.16686 7.49997 10.0002 7.49997C10.9169 7.49997 11.7502 7.8333 12.3335 8.49997C13.0002 9.16664 13.3335 10.0833 13.3335 11C13.3335 11.3333 13.2502 11.6666 13.1669 12V12.5833C13.1669 12.6666 13.2502 12.6666 13.2502 12.75C13.2502 12.75 13.2502 12.8333 13.3335 12.8333C13.4169 12.9166 13.5002 13 13.5835 13L16.5835 14.25C16.6669 14.3333 16.8335 14.3333 16.9169 14.3333C17.0002 14.3333 17.0835 14.3333 17.1669 14.25C17.2502 14.25 17.3335 14.1666 17.3335 14.0833L17.4169 14C17.5002 13.9166 17.5002 13.8333 17.5835 13.75C18.0002 12.75 18.1669 11.75 18.1669 10.6666C18.1669 8.41664 17.3335 6.3333 15.7502 4.74997C14.0002 2.99997 11.2502 2.16664 8.58353 2.5833ZM3.41686 9.66664C3.58353 8.5833 4.08353 7.5833 4.83353 6.66664L6.2502 7.5833C5.5002 8.5833 5.0002 9.74997 5.0002 11.0833C5.0002 11.3333 5.0002 11.5833 5.08353 11.8333L4.0002 12.3333L3.5002 12.5C3.33353 11.5833 3.2502 10.5833 3.41686 9.66664ZM7.5002 6.49997L6.0002 5.49997C6.83353 4.91664 7.83353 4.41664 8.83353 4.24997C10.6669 3.91664 12.5002 4.41664 14.0002 5.49997L12.5002 6.49997C11.7502 6.0833 10.9169 5.8333 10.0002 5.8333C9.08353 5.8333 8.2502 6.0833 7.5002 6.49997ZM16.5002 12.5L15.0002 11.8333C15.0002 11.5833 15.0835 11.3333 15.0835 11.0833C15.0835 9.8333 14.6669 8.5833 13.8335 7.66664L15.2502 6.66664C16.1669 7.8333 16.6669 9.24997 16.6669 10.8333C16.6669 11.4166 16.5835 11.9166 16.5002 12.5Z" fill="white" fill-opacity="0.7"/>
<path d="M10.0003 16.6666C10.917 16.6666 11.667 15.9166 11.667 14.9999C11.667 14.6666 11.5837 14.4166 11.417 14.1666L11.0837 12.4999L10.917 11.6666C10.8337 11.4166 10.8337 11.0833 10.7503 10.8333C10.7503 10.4166 10.417 10.0833 10.0003 10.0833C9.50033 10.0833 9.16699 10.4166 9.08366 10.8333C9.08366 11.0833 9.00033 11.4166 8.91699 11.6666L8.75033 12.4999L8.41699 14.1666C8.25033 14.4166 8.16699 14.7499 8.16699 14.9999C8.33366 15.9166 9.08366 16.6666 10.0003 16.6666Z" fill="white" fill-opacity="0.7"/>
</svg>
