<svg width="24" height="25" viewBox="0 0 24 25" fill="none" xmlns="http://www.w3.org/2000/svg">
<path d="M14 3.5H5C3.89543 3.5 3 4.39543 3 5.5C3 6.60457 3.89543 7.5 5 7.5H18C18 6.57003 18 6.10504 17.8978 5.72354C17.6204 4.68827 16.8117 3.87962 15.7765 3.60222C15.395 3.5 14.93 3.5 14 3.5Z" stroke="white" stroke-width="1.5" stroke-linecap="round" stroke-linejoin="round"/>
<path d="M11 21.5H15C17.8284 21.5 19.2426 21.5 20.1213 20.6213C21 19.7426 21 18.3284 21 15.5V13.5C21 10.6716 21 9.25736 20.1213 8.37868C19.2426 7.5 17.8284 7.5 15 7.5H7M3 15.5V5.5" stroke="white" stroke-width="1.5" stroke-linecap="round" stroke-linejoin="round"/>
<path d="M21 12.5H19C18.535 12.5 18.3025 12.5 18.1118 12.5511C17.5941 12.6898 17.1898 13.0941 17.0511 13.6118C17 13.8025 17 14.035 17 14.5C17 14.965 17 15.1975 17.0511 15.3882C17.1898 15.9059 17.5941 16.3102 18.1118 16.4489C18.3025 16.5 18.535 16.5 19 16.5H21" stroke="white" stroke-width="1.5" stroke-linecap="round" stroke-linejoin="round"/>
<path d="M3 19.5C3 19.5 4 19.5 5 21.5C5 21.5 8.17647 16.5 11 15.5" stroke="white" stroke-width="1.5" stroke-linecap="round" stroke-linejoin="round"/>
</svg>
