<svg width="24" height="24" viewBox="0 0 24 24" fill="none" xmlns="http://www.w3.org/2000/svg">
<g clip-path="url(#clip0_450_168)">
<path d="M12.2497 16.55C12.1117 16.55 11.9727 16.512 11.8517 16.435L5.3517 12.357C5.0067 12.141 4.8977 11.69 5.1047 11.339L11.6047 0.367C11.7397 0.14 11.9847 0 12.2497 0C12.5147 0 12.7597 0.14 12.8957 0.368L19.3917 11.34C19.5987 11.69 19.4897 12.141 19.1447 12.358L12.6487 16.436C12.5267 16.512 12.3887 16.55 12.2497 16.55ZM6.7677 11.475L12.2497 14.914L17.7277 11.475L12.2497 2.222L6.7677 11.475Z" fill="white"/>
<path d="M12.25 24.0001C12.009 24.0001 11.783 23.8841 11.642 23.6891L5.14202 14.6931C4.93202 14.4021 4.95702 14.0031 5.20302 13.7411C5.44802 13.4791 5.84402 13.4271 6.14902 13.6181L12.251 17.4461L18.353 13.6181C18.658 13.4271 19.054 13.4791 19.299 13.7411C19.545 14.0031 19.57 14.4021 19.36 14.6931L12.86 23.6891C12.717 23.8841 12.491 24.0001 12.25 24.0001ZM8.61302 16.9361L12.25 21.9691L15.887 16.9361L12.648 18.9681C12.405 19.1211 12.094 19.1211 11.851 18.9681L8.61302 16.9361Z" fill="white"/>
</g>
<defs>
<clipPath id="clip0_450_168">
<rect width="24" height="24" fill="white"/>
</clipPath>
</defs>
</svg>
