<svg width="20" height="18" viewBox="0 0 20 18" fill="none" xmlns="http://www.w3.org/2000/svg">
<path d="M2.7412 16.1679C2.7627 16.1723 2.7851 16.1762 2.8076 16.1791C3.5439 16.327 4.2822 16.4008 5.0107 16.4008C5.0539 16.4008 5.0966 16.3971 5.1399 16.3965C5.6697 17.0713 6.402 17.548 7.2373 17.7196C8.1543 17.9091 9.0771 18.0038 10 18.0038C10.9229 18.0038 11.8447 17.9091 12.7607 17.7196C13.602 17.5471 14.3371 17.0661 14.8616 16.3965C14.9043 16.397 14.9463 16.4007 14.9892 16.4007C15.7158 16.4007 16.4521 16.327 17.1865 16.1805C17.2109 16.1771 17.2344 16.1727 17.2588 16.1678C18.5791 15.8861 19.5733 14.7806 19.7324 13.4251C19.9102 12.0219 20 10.5326 20 8.99993C20 7.46723 19.9102 5.97793 19.7334 4.58343C19.5732 3.21913 18.5791 2.11373 17.2588 1.83193C17.2373 1.82753 17.2149 1.82363 17.1924 1.82073C16.4168 1.66493 15.6404 1.61503 14.8738 1.62333C14.3431 0.938428 13.6069 0.453727 12.7686 0.281627C11.0206 -0.0923727 8.9717 -0.0909726 7.2393 0.280127C6.39 0.454427 5.6499 0.943628 5.1247 1.62333C4.3611 1.61513 3.5881 1.66523 2.8135 1.81933C2.7891 1.82273 2.7656 1.82703 2.7412 1.83193C1.4209 2.11373 0.4268 3.21913 0.2676 4.57463C0.0898001 5.97793 0 7.46723 0 8.99993C0 10.5326 0.0897999 12.0219 0.2666 13.4164C0.4268 14.7807 1.4209 15.8861 2.7412 16.1679ZM16.8398 3.78953C16.8525 3.79243 16.8652 3.79493 16.8789 3.79683C17.335 3.91153 17.6894 4.32563 17.748 4.82563C17.915 6.14643 18 7.55073 18 8.99993C18 10.4491 17.915 11.8534 17.7471 13.183C17.6895 13.6737 17.336 14.0868 16.8809 14.2025C16.8672 14.2049 16.8536 14.2074 16.8399 14.2103C16.4551 14.2889 16.0704 14.3431 15.6876 14.3734C15.7557 13.8115 15.7951 13.2268 15.841 12.6471C15.8642 12.3535 15.9011 12.0706 15.9186 11.7731C15.972 10.8637 16 9.93773 16 8.99993C16 8.06403 15.972 7.14003 15.9185 6.23073C15.9009 5.93173 15.8639 5.64563 15.8404 5.35023C15.7946 4.77203 15.7554 4.18933 15.6875 3.62633C16.0703 3.65663 16.4551 3.71083 16.8398 3.78953ZM7.6494 2.23773C8.3867 2.08003 9.1777 1.99993 10 1.99993C10.8223 1.99993 11.6133 2.08003 12.3584 2.23923C12.8252 2.33493 13.2295 2.64593 13.4795 3.11323C13.585 3.29973 13.6563 3.51653 13.6875 3.74313C13.8945 5.41643 14 7.18503 14 8.99993C14 10.8148 13.8945 12.5834 13.6895 14.2431C13.6563 14.4833 13.585 14.7001 13.4678 14.9081C13.2295 15.3539 12.8252 15.6649 12.3565 15.7606C10.794 16.0843 9.2081 16.0843 7.6417 15.7606C7.1749 15.6649 6.7706 15.3539 6.5206 14.8866C6.4164 14.7024 6.3463 14.4884 6.312 14.2507C6.1054 12.5791 6 10.8127 6 8.99993C6 7.18503 6.1055 5.41643 6.3105 3.75673C6.3437 3.51653 6.415 3.29973 6.5322 3.09173C6.7705 2.64593 7.1748 2.33493 7.6494 2.23773ZM2.2529 4.81683C2.3105 4.32613 2.664 3.91303 3.1191 3.79733C3.1328 3.79493 3.1464 3.79243 3.1601 3.78953C3.5449 3.71093 3.9296 3.65673 4.3124 3.62643C4.2444 4.18833 4.205 4.77303 4.1591 5.35273C4.1359 5.64633 4.099 5.92923 4.0815 6.22663C4.028 7.13613 4 8.06213 4 8.99993C4 9.93883 4.0281 10.8658 4.0818 11.7763C4.097 12.0331 4.1295 12.2784 4.1489 12.5326C4.1963 13.1518 4.2398 13.7742 4.3125 14.3734C3.9297 14.3431 3.5449 14.2889 3.1602 14.2103C3.1475 14.2074 3.1348 14.2049 3.1211 14.203C2.665 14.0883 2.3106 13.6742 2.252 13.1742C2.085 11.8534 2 10.4491 2 8.99993C2 7.55073 2.085 6.14643 2.2529 4.81683Z" fill="white"/>
</svg>
