<svg width="39" height="35" viewBox="0 0 39 35" fill="none" xmlns="http://www.w3.org/2000/svg">
<path d="M5.88975 30.94C5.93006 30.9483 5.97206 30.9556 6.01425 30.961C7.39481 31.2384 8.77913 31.3767 10.1451 31.3767C10.2261 31.3767 10.3061 31.3698 10.3873 31.3687C11.3807 32.6339 12.7537 33.5277 14.3199 33.8495C16.0393 34.2048 17.7696 34.3824 19.5 34.3824C21.2304 34.3824 22.9588 34.2048 24.6763 33.8495C26.2537 33.5261 27.6321 32.6242 28.6155 31.3687C28.6956 31.3696 28.7743 31.3766 28.8548 31.3766C30.2171 31.3766 31.5977 31.2384 32.9747 30.9637C33.0204 30.9573 33.0645 30.949 33.1103 30.9399C35.5858 30.4117 37.4499 28.3389 37.7483 25.7973C38.0816 23.1663 38.25 20.3739 38.25 17.5C38.25 14.6262 38.0816 11.8338 37.7501 9.21911C37.4497 6.66105 35.5858 4.58842 33.1103 4.06005C33.0699 4.0518 33.0279 4.04448 32.9857 4.03905C31.5315 3.74692 30.0758 3.65336 28.6384 3.66892C27.6433 2.38473 26.2629 1.47592 24.6911 1.15323C21.4136 0.451984 17.5719 0.454609 14.3237 1.15042C12.7312 1.47723 11.3436 2.39448 10.3588 3.66892C8.92706 3.65355 7.47769 3.74748 6.02531 4.03642C5.97956 4.0428 5.9355 4.05086 5.88975 4.06005C3.41419 4.58842 1.55025 6.66105 1.25175 9.20261C0.918375 11.8338 0.75 14.6262 0.75 17.5C0.75 20.3739 0.918375 23.1663 1.24987 25.781C1.55025 28.339 3.41419 30.4117 5.88975 30.94ZM32.3246 7.73055C32.3484 7.73598 32.3723 7.74067 32.3979 7.74423C33.2531 7.9593 33.9176 8.73573 34.0275 9.67323C34.3406 12.1497 34.5 14.7828 34.5 17.5C34.5 20.2173 34.3406 22.8504 34.0258 25.3434C33.9178 26.2634 33.255 27.038 32.4017 27.2549C32.376 27.2594 32.3505 27.2641 32.3248 27.2695C31.6033 27.4169 30.882 27.5186 30.1642 27.5754C30.2919 26.5218 30.3658 25.4255 30.4519 24.3385C30.4954 23.788 30.5646 23.2576 30.5974 22.6998C30.6975 20.9947 30.75 19.2584 30.75 17.5C30.75 15.7452 30.6975 14.0127 30.5972 12.3078C30.5642 11.7472 30.4948 11.2107 30.4508 10.6569C30.3649 9.57273 30.2914 8.48017 30.1641 7.42455C30.8818 7.48136 31.6033 7.58298 32.3246 7.73055ZM15.0926 4.82092C16.4751 4.52524 17.9582 4.37505 19.5 4.37505C21.0418 4.37505 22.5249 4.52523 23.922 4.82373C24.7973 5.00317 25.5553 5.5863 26.0241 6.46248C26.2219 6.81217 26.3556 7.21867 26.4141 7.64355C26.8022 10.781 27 14.0971 27 17.5C27 20.903 26.8022 24.2191 26.4178 27.331C26.3556 27.7814 26.2219 28.1879 26.0021 28.5779C25.5553 29.4138 24.7972 29.9969 23.9184 30.1764C20.9887 30.7833 18.0152 30.7833 15.0782 30.1764C14.2029 29.9969 13.4449 29.4138 12.9761 28.5376C12.7808 28.1922 12.6493 27.791 12.585 27.3453C12.1976 24.211 12 20.899 12 17.5C12 14.0971 12.1978 10.781 12.5822 7.66905C12.6444 7.21867 12.7781 6.81217 12.9979 6.42217C13.4447 5.5863 14.2027 5.00317 15.0926 4.82092ZM4.97419 9.65673C5.08219 8.73667 5.745 7.96211 6.59831 7.74517C6.624 7.74067 6.6495 7.73598 6.67519 7.73055C7.39669 7.58317 8.118 7.48155 8.83575 7.42474C8.70825 8.4783 8.63438 9.57461 8.54831 10.6615C8.50481 11.212 8.43563 11.7425 8.40281 12.3001C8.3025 14.0054 8.25 15.7417 8.25 17.5C8.25 19.2605 8.30269 20.9986 8.40338 22.7058C8.43187 23.1873 8.49281 23.6472 8.52919 24.1239C8.61806 25.2849 8.69963 26.4519 8.83594 27.5754C8.11819 27.5186 7.39669 27.4169 6.67537 27.2695C6.65156 27.2641 6.62775 27.2594 6.60206 27.2559C5.74687 27.0408 5.08237 26.2644 4.9725 25.3269C4.65937 22.8504 4.5 20.2173 4.5 17.5C4.5 14.7828 4.65938 12.1497 4.97419 9.65673Z" fill="url(#paint0_linear_230_225)"/>
<defs>
<linearGradient id="paint0_linear_230_225" x1="13.5" y1="12" x2="30.5" y2="47.5" gradientUnits="userSpaceOnUse">
<stop stop-color="white"/>
<stop offset="1" stop-opacity="0.25"/>
</linearGradient>
</defs>
</svg>
