<svg width="52" height="30" viewBox="0 0 52 30" fill="none" xmlns="http://www.w3.org/2000/svg">
<g clip-path="url(#clip0_204_333)">
<path d="M15.0343 10.875C15.0343 11.5 15.1177 12 15.2011 12.375C15.3261 12.75 15.4929 13.125 15.7431 13.5833C15.8265 13.7083 15.8682 13.8333 15.8682 13.9583C15.8682 14.125 15.7848 14.2917 15.5346 14.4583L14.4923 15.1667C14.3255 15.25 14.2004 15.3333 14.0753 15.3333C13.9085 15.3333 13.7418 15.25 13.575 15.0833C13.3248 14.8333 13.158 14.5833 12.9913 14.2917C12.8245 14 12.6577 13.7083 12.4909 13.2917C11.1984 14.8333 9.57233 15.5833 7.571 15.5833C6.15339 15.5833 5.06934 15.1667 4.23545 14.375C3.40156 13.5833 2.98462 12.5 2.98462 11.1667C2.98462 9.74999 3.48495 8.58332 4.48562 7.74999C5.48628 6.91666 6.86219 6.45832 8.57166 6.45832C9.15538 6.45832 9.7391 6.49999 10.3228 6.58332C10.9482 6.66666 11.5737 6.79166 12.2408 6.95832V5.74999C12.2408 4.49999 11.9906 3.58332 11.4486 3.08332C10.9065 2.58332 10.031 2.33332 8.73844 2.33332C8.15472 2.33332 7.571 2.41666 6.94558 2.54166C6.32017 2.70832 5.73645 2.87499 5.15273 3.12499C4.90256 3.20832 4.69409 3.29166 4.569 3.33332C4.44392 3.33332 4.36053 3.37499 4.31884 3.37499C4.06867 3.37499 3.98528 3.20832 3.98528 2.87499V2.04166C3.98528 1.79166 4.02698 1.58332 4.11037 1.45832C4.19376 1.33332 4.36053 1.20832 4.569 1.12499C5.15273 0.833323 5.86153 0.583323 6.65372 0.37499C7.48761 0.166656 8.3215 0.0416565 9.23877 0.0416565C11.2401 0.0416565 12.6577 0.49999 13.6167 1.37499C14.534 2.29166 14.9926 3.62499 14.9926 5.49999L15.0343 10.875ZM8.2798 13.4167C8.82183 13.4167 9.40555 13.3333 9.98927 13.125C10.573 12.9167 11.115 12.5417 11.5737 12.0417C11.8238 11.7083 12.0323 11.375 12.1574 10.9583C12.2408 10.5417 12.3242 10.0833 12.3242 9.49999V8.79166C11.8238 8.66666 11.3235 8.58332 10.7815 8.49999C10.2394 8.41666 9.7391 8.41666 9.19708 8.41666C8.07133 8.41666 7.27914 8.62499 6.69542 9.08332C6.15339 9.54166 5.86153 10.1667 5.86153 11C5.86153 11.7917 6.07 12.375 6.48694 12.75C6.90389 13.25 7.48761 13.4167 8.2798 13.4167ZM21.6637 15.25C21.3718 15.25 21.1634 15.2083 21.0383 15.0833C20.9132 15 20.7881 14.75 20.7047 14.4167L16.7854 1.49999C16.7021 1.16666 16.6187 0.958323 16.6187 0.833323C16.6187 0.583323 16.7438 0.416656 17.0356 0.416656H18.6617C18.9952 0.416656 19.2037 0.458323 19.3288 0.583323C19.4539 0.666656 19.579 0.916656 19.6624 1.24999L22.4559 12.2917L25.0409 1.24999C25.1243 0.916656 25.2077 0.708323 25.3745 0.583323C25.4996 0.49999 25.7497 0.416656 26.0416 0.416656H27.3758C27.7094 0.416656 27.9178 0.458323 28.0429 0.583323C28.168 0.666656 28.2931 0.916656 28.3765 1.24999L31.0032 12.4167L33.8801 1.24999C33.9635 0.916656 34.0886 0.708323 34.2137 0.583323C34.3388 0.49999 34.5472 0.416656 34.8808 0.416656H36.4235C36.6737 0.416656 36.8404 0.541656 36.8404 0.833323C36.8404 0.916656 36.8404 0.99999 36.7987 1.08332C36.7987 1.16666 36.757 1.33332 36.6737 1.49999L32.6293 14.4167C32.5459 14.75 32.4208 14.9583 32.2957 15.0833C32.1707 15.1667 31.9622 15.25 31.6703 15.25H30.2527C29.9192 15.25 29.7107 15.2083 29.5856 15.0833C29.4605 14.9583 29.3354 14.75 29.2521 14.4167L26.667 3.66666L24.082 14.4167C23.9986 14.75 23.9152 14.9583 23.7484 15.0833C23.6233 15.2083 23.3732 15.25 23.0813 15.25H21.6637ZM43.1363 15.6667C42.2607 15.6667 41.3851 15.5833 40.5512 15.375C39.7173 15.1667 39.0502 14.9583 38.6333 14.7083C38.3831 14.5417 38.1747 14.375 38.133 14.25C38.0913 14.125 38.0079 13.9167 38.0079 13.7917V12.9583C38.0079 12.625 38.133 12.4583 38.3831 12.4583C38.4665 12.4583 38.5916 12.4583 38.675 12.5C38.7584 12.5417 38.9251 12.5833 39.0919 12.6667C39.6756 12.9167 40.2594 13.125 40.9265 13.25C41.5936 13.375 42.2607 13.4583 42.9278 13.4583C43.9702 13.4583 44.8041 13.2917 45.3461 12.9167C45.9298 12.5417 46.2217 12 46.2217 11.3333C46.2217 10.875 46.0549 10.5 45.763 10.1667C45.4712 9.83332 44.8874 9.58332 44.0952 9.29166L41.677 8.54166C40.4678 8.16666 39.5506 7.58332 39.0085 6.83332C38.4665 6.08332 38.1747 5.29166 38.1747 4.41666C38.1747 3.70832 38.3414 3.08332 38.6333 2.58332C38.9251 2.08332 39.3421 1.58332 39.8424 1.20832C40.3428 0.833323 40.9265 0.541656 41.5936 0.333323C42.2607 0.12499 42.9695 0.0416565 43.6783 0.0416565C44.0536 0.0416565 44.4288 0.0416565 44.8041 0.12499C45.1793 0.166656 45.5546 0.24999 45.8881 0.291656C46.2217 0.37499 46.5552 0.458323 46.8471 0.541656C47.1389 0.62499 47.3891 0.74999 47.5559 0.833323C47.806 0.958323 47.9728 1.08332 48.0562 1.24999C48.1396 1.37499 48.223 1.58332 48.223 1.79166V2.58332C48.223 2.91666 48.0979 3.12499 47.8477 3.12499C47.7227 3.12499 47.5142 3.04166 47.2223 2.91666C46.2634 2.49999 45.221 2.24999 44.0119 2.24999C43.0529 2.24999 42.3024 2.41666 41.8021 2.70832C41.3017 2.99999 41.0099 3.49999 41.0099 4.20832C41.0099 4.66666 41.1766 5.08332 41.5102 5.37499C41.8438 5.70832 42.4692 5.99999 43.3447 6.29166L45.7213 7.04166C46.9305 7.41666 47.806 7.95832 48.3064 8.62499C48.8067 9.29166 49.0569 10.0833 49.0569 10.9583C49.0569 11.6667 48.8901 12.3333 48.6399 12.875C48.3481 13.4583 47.9311 13.9583 47.4308 14.3333C46.9305 14.75 46.305 15.0417 45.5962 15.25C44.7624 15.5833 43.9702 15.6667 43.1363 15.6667Z" fill="white"/>
<path fill-rule="evenodd" clip-rule="evenodd" d="M46.305 23.7917C40.8013 27.8333 32.796 30 25.9581 30C16.3267 30 7.6543 26.4583 1.10829 20.5417C0.607956 20.0833 1.06659 19.4583 1.69201 19.7917C8.78005 23.9167 17.4942 26.375 26.5418 26.375C32.6292 26.375 39.342 25.125 45.5128 22.5C46.3884 22.125 47.1805 23.125 46.305 23.7917Z" fill="#FF9900"/>
<path fill-rule="evenodd" clip-rule="evenodd" d="M48.5565 21.2083C47.8477 20.2917 43.9284 20.7917 42.1355 21C41.5935 21.0833 41.5101 20.5833 42.0105 20.25C45.1375 18.0417 50.3076 18.6667 50.8914 19.4167C51.4751 20.1667 50.7246 25.3333 47.806 27.7917C47.3473 28.1667 46.9304 27.9583 47.1389 27.4583C47.806 25.7917 49.2653 22.0833 48.5565 21.2083Z" fill="#FF9900"/>
</g>
<defs>
<clipPath id="clip0_204_333">
<rect width="50.2" height="30" fill="white" transform="translate(0.899902)"/>
</clipPath>
</defs>
</svg>
