<svg width="24" height="24" viewBox="0 0 24 24" fill="none" xmlns="http://www.w3.org/2000/svg">
<path d="M11.8858 0.372708C11.0942 0.376458 10.3386 0.44377 9.67335 0.56152C7.71398 0.907645 7.35848 1.63215 7.35848 2.96846V4.73302H11.9884V5.32121H5.62073C4.27523 5.32121 3.09698 6.1299 2.72835 7.6689C2.3031 9.43233 2.28435 10.533 2.72835 12.3744C3.05741 13.7452 3.84341 14.7217 5.1891 14.7217H6.78116V12.6063C6.78116 11.078 8.10323 9.73008 9.67354 9.73008H14.2982C15.5856 9.73008 16.6131 8.66996 16.6131 7.37733V2.96865C16.6131 1.71371 15.5545 0.771145 14.2982 0.561708C13.5025 0.429333 12.6773 0.369145 11.8858 0.372708ZM9.38198 1.7919C9.8601 1.7919 10.2509 2.18883 10.2509 2.67708C10.2509 3.16327 9.86029 3.55646 9.38198 3.55646C8.90198 3.55646 8.51329 3.16327 8.51329 2.67708C8.5131 2.18883 8.90198 1.7919 9.38198 1.7919Z" fill="url(#paint0_linear_392_347)"/>
<path d="M17.1903 5.32123V7.37736C17.1903 8.97111 15.8388 10.3127 14.298 10.3127H9.67327C8.40652 10.3127 7.3584 11.397 7.3584 12.6656V17.0747C7.3584 18.3292 8.44927 19.0674 9.67327 19.4272C11.1388 19.8579 12.5443 19.9359 14.298 19.4272C15.4635 19.0895 16.6128 18.4104 16.6128 17.0747V15.3099H11.9883V14.7215H18.9281C20.2736 14.7215 20.7753 13.7831 21.2433 12.3742C21.7267 10.9239 21.7059 9.52911 21.2433 7.66873C20.9107 6.32905 20.2756 5.32104 18.9281 5.32104L17.1903 5.32123ZM14.5891 16.4863C15.0693 16.4863 15.458 16.8795 15.458 17.366C15.458 17.8539 15.0691 18.2509 14.5891 18.2509C14.111 18.2509 13.7205 17.8539 13.7205 17.366C13.7205 16.8795 14.111 16.4863 14.5891 16.4863Z" fill="url(#paint1_linear_392_347)"/>
<path opacity="0.444" d="M18.2452 22.4244C18.2452 23.0887 15.4672 23.6274 12.0407 23.6274C8.61394 23.6274 5.83594 23.0887 5.83594 22.4244C5.83594 21.7599 8.61375 21.2212 12.0407 21.2212C15.4672 21.2212 18.2452 21.7597 18.2452 22.4244Z" fill="url(#paint2_radial_392_347)"/>
<defs>
<linearGradient id="paint0_linear_392_347" x1="1.9382" y1="0.924451" x2="12.617" y2="10.0313" gradientUnits="userSpaceOnUse">
<stop stop-color="#5A9FD4"/>
<stop offset="1" stop-color="#306998"/>
</linearGradient>
<linearGradient id="paint1_linear_392_347" x1="16.6347" y1="15.6923" x2="12.8051" y2="10.3219" gradientUnits="userSpaceOnUse">
<stop stop-color="#FFD43B"/>
<stop offset="1" stop-color="#FFE873"/>
</linearGradient>
<radialGradient id="paint2_radial_392_347" cx="0" cy="0" r="1" gradientUnits="userSpaceOnUse" gradientTransform="translate(12.0156 22.3899) rotate(-90) scale(1.20343 5.2901)">
<stop stop-color="#B8B8B8" stop-opacity="0.498"/>
<stop offset="1" stop-color="#7F7F7F" stop-opacity="0"/>
</radialGradient>
</defs>
</svg>
