<svg width="20" height="20" viewBox="0 0 20 20" fill="none" xmlns="http://www.w3.org/2000/svg">
<path fill-rule="evenodd" clip-rule="evenodd" d="M8.75 14.375C8.91576 14.375 9.07473 14.3092 9.19194 14.1919C9.30915 14.0747 9.375 13.9158 9.375 13.75C9.375 13.4944 9.47125 13.3075 9.62937 13.2056C10.0025 12.9637 10.625 13.1469 10.625 13.75C10.625 13.9158 10.6908 14.0747 10.8081 14.1919C10.9253 14.3092 11.0842 14.375 11.25 14.375H18.125C18.2908 14.375 18.4497 14.3092 18.5669 14.1919C18.6842 14.0747 18.75 13.9158 18.75 13.75V12.5C18.75 12.3342 18.6842 12.1753 18.5669 12.0581C18.4497 11.9408 18.2908 11.875 18.125 11.875C17.7081 11.875 17.7081 11.25 18.125 11.25C18.2908 11.25 18.4497 11.1842 18.5669 11.0669C18.6842 10.9497 18.75 10.7908 18.75 10.625V10C18.75 9.83424 18.6842 9.67527 18.5669 9.55806C18.4497 9.44085 18.2908 9.375 18.125 9.375C17.7081 9.375 17.7081 8.75 18.125 8.75C18.2908 8.75 18.4497 8.68415 18.5669 8.56694C18.6842 8.44973 18.75 8.29076 18.75 8.125V6.875C18.75 6.70924 18.6842 6.55027 18.5669 6.43306C18.4497 6.31585 18.2908 6.25 18.125 6.25H1.875C1.70924 6.25 1.55027 6.31585 1.43306 6.43306C1.31585 6.55027 1.25 6.70924 1.25 6.875V8.125C1.25 8.29076 1.31585 8.44973 1.43306 8.56694C1.55027 8.68415 1.70924 8.75 1.875 8.75C2.29188 8.75 2.29188 9.375 1.875 9.375C1.70924 9.375 1.55027 9.44085 1.43306 9.55806C1.31585 9.67527 1.25 9.83424 1.25 10V10.625C1.25 10.7908 1.31585 10.9497 1.43306 11.0669C1.55027 11.1842 1.70924 11.25 1.875 11.25C2.29188 11.25 2.29188 11.875 1.875 11.875C1.70924 11.875 1.55027 11.9408 1.43306 12.0581C1.31585 12.1753 1.25 12.3342 1.25 12.5V13.75C1.25 13.9158 1.31585 14.0747 1.43306 14.1919C1.55027 14.3092 1.70924 14.375 1.875 14.375H8.75ZM17.1413 10.3125C16.2644 10.9925 16.3837 12.5825 17.5 13.015V13.125H11.7887C11.4144 11.8631 9.90563 11.5387 8.95062 12.1556C8.59727 12.3804 8.33608 12.7243 8.21437 13.125H2.5V13.015C3.61562 12.5825 3.73563 10.9931 2.85875 10.3125C3.73563 9.6325 3.61625 8.0425 2.5 7.61V7.5H17.5V7.61C16.3844 8.0425 16.2644 9.63188 17.1413 10.3125Z" fill="white" fill-opacity="0.7"/>
<path fill-rule="evenodd" clip-rule="evenodd" d="M6.25 8.75C6.25 8.58424 6.18415 8.42527 6.06694 8.30806C5.94973 8.19085 5.79076 8.125 5.625 8.125H4.375C4.20924 8.125 4.05027 8.19085 3.93306 8.30806C3.81585 8.42527 3.75 8.58424 3.75 8.75V10.3125C3.75 10.4783 3.81585 10.6372 3.93306 10.7544C4.05027 10.8717 4.20924 10.9375 4.375 10.9375H5.625C5.79076 10.9375 5.94973 10.8717 6.06694 10.7544C6.18415 10.6372 6.25 10.4783 6.25 10.3125V8.75ZM9.375 8.75C9.375 8.58424 9.30915 8.42527 9.19194 8.30806C9.07473 8.19085 8.91576 8.125 8.75 8.125H7.5C7.33424 8.125 7.17527 8.19085 7.05806 8.30806C6.94085 8.42527 6.875 8.58424 6.875 8.75V10.3125C6.875 10.4783 6.94085 10.6372 7.05806 10.7544C7.17527 10.8717 7.33424 10.9375 7.5 10.9375H8.75C8.91576 10.9375 9.07473 10.8717 9.19194 10.7544C9.30915 10.6372 9.375 10.4783 9.375 10.3125V8.75ZM13.125 8.75C13.125 8.58424 13.0592 8.42527 12.9419 8.30806C12.8247 8.19085 12.6658 8.125 12.5 8.125H11.25C11.0842 8.125 10.9253 8.19085 10.8081 8.30806C10.6908 8.42527 10.625 8.58424 10.625 8.75V10.3125C10.625 10.4783 10.6908 10.6372 10.8081 10.7544C10.9253 10.8717 11.0842 10.9375 11.25 10.9375H12.5C12.6658 10.9375 12.8247 10.8717 12.9419 10.7544C13.0592 10.6372 13.125 10.4783 13.125 10.3125V8.75ZM16.25 8.75C16.25 8.58424 16.1842 8.42527 16.0669 8.30806C15.9497 8.19085 15.7908 8.125 15.625 8.125H14.375C14.2092 8.125 14.0503 8.19085 13.9331 8.30806C13.8158 8.42527 13.75 8.58424 13.75 8.75V10.3125C13.75 10.4783 13.8158 10.6372 13.9331 10.7544C14.0503 10.8717 14.2092 10.9375 14.375 10.9375H15.625C15.7908 10.9375 15.9497 10.8717 16.0669 10.7544C16.1842 10.6372 16.25 10.4783 16.25 10.3125V8.75Z" fill="white" fill-opacity="0.7"/>
</svg>
